<svg xmlns="http://www.w3.org/2000/svg" xmlns:xlink="http://www.w3.org/1999/xlink" width="800" height="800" viewBox="0 0 800 800">
  <defs>
    <linearGradient id="linear-gradient" x1="1" y1="0.487" x2="0" y2="0.485" gradientUnits="objectBoundingBox">
      <stop offset="0" stop-color="#f5793b"/>
      <stop offset="0.161" stop-color="#bf9b53"/>
      <stop offset="1" stop-color="#e7752a"/>
    </linearGradient>
    <clipPath id="clip-Ransh_Logo_Black_Bg">
      <rect width="800" height="800"/>
    </clipPath>
  </defs>
  <g id="Ransh_Logo_Black_Bg" data-name="Ransh Logo Black Bg" clip-path="url(#clip-Ransh_Logo_Black_Bg)">
    <rect width="800" height="800" fill="#222831"/>
    <g id="Bulb_person-2_adobe_express" data-name="Bulb person-2_adobe_express" transform="translate(26.739 212.965)">
      <path id="Path_1" data-name="Path 1" d="M105.272,243.549c2.927-2.378,6.05-3.6,9.108-4.891,2.615-1.1,3.472-2.5,2.407-5.392a62.678,62.678,0,0,1-4.1-25.949,12.131,12.131,0,0,0-2.545-7.874c-4.41-6.477-8.63-13.089-11.676-20.339-3.724-8.864-1.749-12.789,7.543-14.635a131.553,131.553,0,0,1,13.361-1.608c2.284-.214,4.377-.442,5.074-4.038-7.818-4.278-12.728-10.9-12.026-20.644a19.538,19.538,0,0,1,7.274-14.27,20.374,20.374,0,0,1,28.977,3.068,19.711,19.711,0,0,1,4.446,14.929,21.21,21.21,0,0,1-7.147,13.347c-4.023,3.658-9.37,4.26-14.173,6.3,2.362,1.413,4.676.993,6.9.846,7.656-.5,15.306-.795,22.939.168,3.526.444,5.261-.465,5.1-4.474-.209-5.056-.869-10.466,4.989-13.481.681-.351.788-2.094.907-3.218a55.172,55.172,0,0,1,11.32-28.562c8.586-10.951,21.822-18.032,37.637-18.736,20.964-.934,37.415,8.709,48.535,26.366,10.437,16.572,9.823,33.721.288,50.635-1.961,3.477-4.11,6.863-6.382,10.145-4.418,6.384-7.331,13.007-8.1,21.071-1.138,11.889-7.787,20.739-19,25.563-8.32,3.579-16.947,5.97-26.158,5.444-2.807-.16-5.833-.507-5.729-4.04.1-3.262,3.108-3.518,5.66-3.5a62.265,62.265,0,0,0,22.45-4.107c9.441-3.513,14.511-10.622,15.449-20.271a48.271,48.271,0,0,1,9.888-24.647c5.286-7.119,9.809-14.614,11.295-23.635,3.726-22.621-12.55-45.126-34.311-50.606-29.614-7.458-59.445,17.4-57.043,47.854.728,9.233,5.067,17.131,10.1,24.694,2.764,4.156,5.472,8.356,8.023,12.645a17.17,17.17,0,0,1,2.713,8.49,28.822,28.822,0,0,0,7.9,19.931c1.634,1.774,3.353,3.937,1.286,6.1-2.28,2.386-4.667.652-6.535-1.1a29.283,29.283,0,0,1-9.1-19.469,33.715,33.715,0,0,0-6.866-17.894,71.528,71.528,0,0,1-10.109-17.681c-1.286,4.085-4.059,4.182-7.083,4.158-12.157-.1-24.317.059-36.472-.131-3.794-.059-5.772,1.4-6.971,4.906a124.434,124.434,0,0,0-4.855,19.329c-.629,3.674-.247,7.045,2.354,10.285,5,6.229,9.5,12.862,14.247,19.293,4.828,6.533,4.174,9.813-2.891,14.024-6.24,3.718-5.232,3.505-3.84,10.076,1.952,9.215,8.693,8.763,15.216,9.627,1.711.226,3.675-.9,5.174.963.091,2.739-1.986,2.9-3.723,2.652-10.536-1.5-21.013-1.338-31.634-.547-4.963.37-10.21-.6-15.352-.281-1.315.08-2.692.4-3.741-1.316,1.728-4.583,7.235-.851,9.7-4.28-1.013-3.482-4.094-7.029-.685-11.295m29.692-116.3c-9.92-.579-16.492,5.669-15.035,14.3a13.033,13.033,0,0,0,12.733,11.1c6.151.031,11.64-4.729,12.817-11.117,1.12-6.075-2.662-11.6-10.515-14.279m-20.432,60.924L118.97,170.6c-4.948.926-9.8-.031-14.492,2.587,1.748,5.889,4.762,10.958,7.981,15.914.6.93,1.383.563,2.073-.927m9.371,44.058c3.727,2.605,5.371-.5,7.824-2.634l-12.269-16.514a70.181,70.181,0,0,0,4.445,19.148m-2.795,18.511c3.059-.552,1.961-2.462,1.283-4.128-.609-1.5-1.547-2.645-3.423-1.75-2.356,1.124-5.017,1.706-6.918,3.737a5.6,5.6,0,0,0,3.361,4.562C117.149,252.393,118.8,251.659,121.108,250.745Z"/>
      <g id="Group_1" data-name="Group 1">
        <path id="Path_5" data-name="Path 5" d="M105.272,243.549c2.927-2.378,6.05-3.6,9.108-4.891,2.615-1.1,3.472-2.5,2.407-5.392a62.678,62.678,0,0,1-4.1-25.949,12.131,12.131,0,0,0-2.545-7.874c-4.41-6.477-8.63-13.089-11.676-20.339-3.724-8.864-1.749-12.789,7.543-14.635a131.553,131.553,0,0,1,13.361-1.608c2.284-.214,4.377-.442,5.074-4.038-7.818-4.278-12.728-10.9-12.026-20.644a19.538,19.538,0,0,1,7.274-14.27,20.374,20.374,0,0,1,28.977,3.068,19.711,19.711,0,0,1,4.446,14.929,21.21,21.21,0,0,1-7.147,13.347c-4.023,3.658-9.37,4.26-14.173,6.3,2.362,1.413,4.676.993,6.9.846,7.656-.5,15.306-.795,22.939.168,3.526.444,5.261-.465,5.1-4.474-.209-5.056-.869-10.466,4.989-13.481.681-.351.788-2.094.907-3.218a55.172,55.172,0,0,1,11.32-28.562c8.586-10.951,21.822-18.032,37.637-18.736,20.964-.934,37.415,8.709,48.535,26.366,10.437,16.572,9.823,33.721.288,50.635-1.961,3.477-4.11,6.863-6.382,10.145-4.418,6.384-7.331,13.007-8.1,21.071-1.138,11.889-7.787,20.739-19,25.563-8.32,3.579-16.947,5.97-26.158,5.444-2.807-.16-5.833-.507-5.729-4.04.1-3.262,3.108-3.518,5.66-3.5a62.265,62.265,0,0,0,22.45-4.107c9.441-3.513,14.511-10.622,15.449-20.271a48.271,48.271,0,0,1,9.888-24.647c5.286-7.119,9.809-14.614,11.295-23.635,3.726-22.621-12.55-45.126-34.311-50.606-29.614-7.458-59.445,17.4-57.043,47.854.728,9.233,5.067,17.131,10.1,24.694,2.764,4.156,5.472,8.356,8.023,12.645a17.17,17.17,0,0,1,2.713,8.49,28.822,28.822,0,0,0,7.9,19.931c1.634,1.774,3.353,3.937,1.286,6.1-2.28,2.386-4.667.652-6.535-1.1a29.283,29.283,0,0,1-9.1-19.469,33.715,33.715,0,0,0-6.866-17.894,71.528,71.528,0,0,1-10.109-17.681c-1.286,4.085-4.059,4.182-7.083,4.158-12.157-.1-24.317.059-36.472-.131-3.794-.059-5.772,1.4-6.971,4.906a124.434,124.434,0,0,0-4.855,19.329c-.629,3.674-.247,7.045,2.354,10.285,5,6.229,9.5,12.862,14.247,19.293,4.828,6.533,4.174,9.813-2.891,14.024-6.24,3.718-5.232,3.505-3.84,10.076,1.952,9.215,8.693,8.763,15.216,9.627,1.711.226,3.675-.9,5.174.963.091,2.739-1.986,2.9-3.723,2.652-10.536-1.5-21.013-1.338-31.634-.547-4.963.37-10.21-.6-15.352-.281-1.315.08-2.692.4-3.741-1.316,1.728-4.583,7.235-.851,9.7-4.28-1.013-3.482-4.094-7.029-.685-11.295m29.692-116.3c-9.92-.579-16.492,5.669-15.035,14.3a13.033,13.033,0,0,0,12.733,11.1c6.151.031,11.64-4.729,12.817-11.117,1.12-6.075-2.662-11.6-10.515-14.279m-20.432,60.924L118.97,170.6c-4.948.926-9.8-.031-14.492,2.587,1.748,5.889,4.762,10.958,7.981,15.914.6.93,1.383.563,2.073-.927m9.371,44.058c3.727,2.605,5.371-.5,7.824-2.634l-12.269-16.514a70.181,70.181,0,0,0,4.445,19.148m-2.795,18.511c3.059-.552,1.961-2.462,1.283-4.128-.609-1.5-1.547-2.645-3.423-1.75-2.356,1.124-5.017,1.706-6.918,3.737a5.6,5.6,0,0,0,3.361,4.562C117.149,252.393,118.8,251.659,121.108,250.745Z" fill="url(#linear-gradient)"/>
        <path id="Path_2" data-name="Path 2" d="M244.094,229.616c1.091,3.763-1,5.619-3.664,6.906a66.531,66.531,0,0,1-30.9,6.778,5.76,5.76,0,0,1-4.16-1.376c-1.117-1.1-1.955-2.46-.967-3.994.864-1.344,2.156-.891,3.558-.643,11.413,2.02,21.94-.583,31.646-6.646C241.016,229.758,241.936,228.2,244.094,229.616Z" fill="url(#linear-gradient)"/>
        <path id="Path_3" data-name="Path 3" d="M207.037,252.144c-2.091-1.27-3.952-2.551-2.514-4.874s3.163.061,4.726.053c10.815-.054,21.582-.65,30.662-7.647,1.317-1.015,2.306-2.811,4.061-1.047,1.462,1.468.587,3.17-.353,4.537a6.989,6.989,0,0,1-2.564,2.252C230.435,250.59,219.28,253.232,207.037,252.144Z" fill="url(#linear-gradient)"/>
        <path id="Path_4" data-name="Path 4" d="M231.74,258.894c-5.909,3.355-10.967,3.349-14.668.142-1.262-1.093-2.767-2.414-1.545-4.194,1.249-1.819,2.909-.953,4.341.1,3.879,2.853,7.122,1.736,10.033-1.581,1.3-1.484,2.263-4.684,4.77-2.632,2.135,1.747.722,4.283-.88,6.173A24.616,24.616,0,0,1,231.74,258.894Z" fill="url(#linear-gradient)"/>
      </g>
    </g>
    <line id="Line_1" data-name="Line 1" y2="240" transform="translate(338.5 280.696)" fill="none" stroke="#fff" stroke-width="4"/>
    <text id="Innovations" transform="translate(367 447)" fill="#f7dd83" stroke="#ff5724" stroke-width="1" font-size="56" font-family="FranklinGothic-DemiCond, Franklin Gothic" font-weight="300" letter-spacing="0.01em"><tspan x="0" y="0">INNOVATIONS</tspan></text>
    <text id="iGNITE_iNNOVATE_iNSPIRE" data-name="iGNITE iNNOVATE iNSPIRE" transform="translate(361 501)" fill="#f5793b" font-size="20" font-family="SegoeUI-Semibold, Segoe UI" font-weight="600" letter-spacing="0.005em"><tspan x="0" y="0">IGNITE INNOVATE INSPIRE</tspan></text>
    <text id="RANSH" transform="translate(361 382)" fill="#facf39" stroke="#e8036e" stroke-width="1" font-size="117" font-family="FranklinGothic-DemiCond, Franklin Gothic" font-weight="300" letter-spacing="0.01em"><tspan x="0" y="0">RANSH</tspan></text>
  </g>
</svg>
